<svg width="1070" height="147" viewBox="0 0 1070 147" fill="none" xmlns="http://www.w3.org/2000/svg">
<rect x="0.115234" y="0.589844" width="436.5" height="145.099" fill="#D9D9D9"/>
<rect x="504.958" y="2.99805" width="341.976" height="140.282" fill="#D9D9D9"/>
<path d="M569.451 47.0088L550.979 82.6212V101.641H540.022V82.6212L521.472 47.0088H533.838L545.579 71.9767L557.241 47.0088H569.451ZM586.571 47.0088V80.8211C586.571 84.5258 587.537 87.3696 589.467 89.3524C591.398 91.283 594.111 92.2483 597.607 92.2483C601.156 92.2483 603.895 91.283 605.826 89.3524C607.756 87.3696 608.722 84.5258 608.722 80.8211V47.0088H619.758V80.7428C619.758 85.3867 618.74 89.3263 616.705 92.5614C614.722 95.7444 612.035 98.1446 608.643 99.7622C605.304 101.38 601.573 102.189 597.451 102.189C593.381 102.189 589.676 101.38 586.337 99.7622C583.049 98.1446 580.44 95.7444 578.51 92.5614C576.579 89.3263 575.614 85.3867 575.614 80.7428V47.0088H586.571ZM689.907 47.0088V101.641H678.95V66.1065L664.313 101.641H656.017L641.302 66.1065V101.641H630.345V47.0088H642.789L660.165 87.6305L677.541 47.0088H689.907ZM760.304 47.0088V101.641H749.346V66.1065L734.71 101.641H726.413L711.699 66.1065V101.641H700.741V47.0088H713.186L730.561 87.6305L747.937 47.0088H760.304ZM814.577 47.0088L796.105 82.6212V101.641H785.147V82.6212L766.598 47.0088H778.964L790.705 71.9767L802.367 47.0088H814.577Z" fill="white"/>
<rect x="934.823" y="1.18945" width="134.262" height="145.099" fill="#D9D9D9"/>
<path d="M46.752 39.2686C39.1785 39.226 32.9949 46.3689 32.9453 55.2064C32.9029 62.7745 37.369 69.1635 43.4055 70.8576L40.9223 107.904C40.7457 110.409 42.6681 112.487 45.1872 112.502L47.4787 112.514C49.9978 112.529 51.9271 110.489 51.795 107.965L49.7276 70.8932C55.7828 69.2508 60.3201 62.945 60.3627 55.3607C60.4285 46.5232 54.3255 39.3112 46.752 39.2686ZM92.8431 39.5279L88.9117 62.3898L86.0513 62.3737L84.2782 39.4797L82.3767 39.469L80.3468 62.3416L77.4864 62.3255L73.7956 39.4207L71.8941 39.41L71.7271 69.1615C71.72 70.431 72.7382 71.4621 74.0058 71.4692L79.9541 71.5027L77.5058 108.126C77.3292 110.632 79.2516 112.709 81.7707 112.724L84.0623 112.737C86.5813 112.751 88.5106 110.711 88.3785 108.187L86.3412 71.5386L92.2895 71.5721C93.5572 71.5792 94.5868 70.5597 94.5939 69.2902L94.7608 39.5387L92.8431 39.5279Z" fill="white"/>
<rect x="15.1666" y="16.2447" width="408.805" height="114.393" rx="3.01035" stroke="white" stroke-width="6.0207"/>
<path d="M159.134 44.6026L140.662 80.215V99.2344H129.705V80.215L111.155 44.6026H123.521L135.262 69.5704L146.924 44.6026H159.134ZM176.255 44.6026V78.4148C176.255 82.1195 177.22 84.9633 179.151 86.9461C181.081 88.8768 183.795 89.8421 187.291 89.8421C190.839 89.8421 193.578 88.8768 195.509 86.9461C197.439 84.9633 198.405 82.1195 198.405 78.4148V44.6026H209.441V78.3365C209.441 82.9805 208.423 86.92 206.388 90.1552C204.405 93.3381 201.718 95.7384 198.326 97.3559C194.987 98.9735 191.256 99.7823 187.134 99.7823C183.064 99.7823 179.359 98.9735 176.02 97.3559C172.732 95.7384 170.124 93.3381 168.193 90.1552C166.262 86.92 165.297 82.9805 165.297 78.3365V44.6026H176.255ZM279.591 44.6026V99.2344H268.633V63.7002L253.997 99.2344H245.7L230.985 63.7002V99.2344H220.028V44.6026H232.473L249.848 85.2242L267.224 44.6026H279.591ZM349.987 44.6026V99.2344H339.029V63.7002L324.393 99.2344H316.096L301.382 63.7002V99.2344H290.424V44.6026H302.869L320.245 85.2242L337.62 44.6026H349.987ZM404.26 44.6026L385.788 80.215V99.2344H374.831V80.215L356.281 44.6026H368.647L380.388 69.5704L392.05 44.6026H404.26Z" fill="white"/>
<path d="M980.258 39.8682C972.685 39.8256 966.501 46.9685 966.452 55.806C966.409 63.3741 970.875 69.7631 976.912 71.4572L974.429 108.504C974.252 111.009 976.174 113.087 978.694 113.101L980.985 113.114C983.504 113.128 985.433 111.088 985.301 108.565L983.234 71.4928C989.289 69.8505 993.826 63.5446 993.869 55.9603C993.935 47.1228 987.832 39.9108 980.258 39.8682ZM1026.35 40.1275L1022.42 62.9894L1019.56 62.9733L1017.78 40.0793L1015.88 40.0686L1013.85 62.9412L1010.99 62.9251L1007.3 40.0203L1005.4 40.0096L1005.23 69.7611C1005.23 71.0306 1006.24 72.0617 1007.51 72.0689L1013.46 72.1023L1011.01 108.726C1010.84 111.231 1012.76 113.309 1015.28 113.323L1017.57 113.336C1020.09 113.35 1022.02 111.31 1021.88 108.787L1019.85 72.1383L1025.8 72.1717C1027.06 72.1789 1028.09 71.1593 1028.1 69.8898L1028.27 40.1383L1026.35 40.1275Z" fill="white"/>
<rect x="948.672" y="16.8463" width="105.362" height="114.393" rx="3.01035" stroke="white" stroke-width="6.0207"/>
</svg>
