<svg width="1046" height="124" viewBox="0 0 1046 124" fill="none" xmlns="http://www.w3.org/2000/svg">
<path d="M557.941 31.8194L539.47 67.4318V86.4512H528.512V67.4318L509.963 31.8194H522.329L534.069 56.7872L545.731 31.8194H557.941ZM575.062 31.8194V65.6316C575.062 69.3363 576.028 72.1801 577.958 74.1629C579.889 76.0936 582.602 77.0589 586.098 77.0589C589.646 77.0589 592.386 76.0936 594.316 74.1629C596.247 72.1801 597.212 69.3363 597.212 65.6316V31.8194H608.248V65.5533C608.248 70.1973 607.231 74.1368 605.196 77.372C603.213 80.5549 600.526 82.9552 597.134 84.5727C593.795 86.1903 590.064 86.9991 585.942 86.9991C581.872 86.9991 578.167 86.1903 574.827 84.5727C571.54 82.9552 568.931 80.5549 567 77.372C565.07 74.1368 564.105 70.1973 564.105 65.5533V31.8194H575.062ZM678.398 31.8194V86.4512H667.44V50.917L652.804 86.4512H644.508L629.793 50.917V86.4512H618.835V31.8194H631.28L648.656 72.441L666.032 31.8194H678.398ZM748.794 31.8194V86.4512H737.837V50.917L723.2 86.4512H714.904L700.189 50.917V86.4512H689.232V31.8194H701.676L719.052 72.441L736.428 31.8194H748.794ZM803.067 31.8194L784.596 67.4318V86.4512H773.638V67.4318L755.088 31.8194H767.455L779.195 56.7872L790.857 31.8194H803.067Z" fill="black"/>
<path d="M35.5508 29.251C27.9773 29.2084 21.7937 36.3513 21.7441 45.1888C21.7017 52.7569 26.1678 59.1459 32.2043 60.8401L29.7211 97.8864C29.5445 100.392 31.4669 102.47 33.986 102.484L36.2776 102.497C38.7967 102.511 40.7259 100.471 40.5938 97.9476L38.5264 60.8756C44.5816 59.2333 49.119 52.9275 49.1615 45.3431C49.2274 36.5056 43.1243 29.2936 35.5508 29.251ZM81.6419 29.5103L77.7105 52.3722L74.8501 52.3561L73.077 29.4621L71.1755 29.4514L69.1456 52.324L66.2853 52.3079L62.5944 29.4032L60.6929 29.3925L60.526 59.1439C60.5189 60.4134 61.537 61.4445 62.8047 61.4517L68.7529 61.4851L66.3046 98.1085C66.128 100.614 68.0504 102.692 70.5695 102.706L72.8611 102.719C75.3802 102.733 77.3094 100.693 77.1773 98.1697L75.14 61.5211L81.0883 61.5545C82.356 61.5617 83.3856 60.5421 83.3928 59.2726L83.5597 29.5211L81.6419 29.5103Z" fill="black"/>
<rect x="3.96347" y="6.46738" width="408.805" height="114.393" rx="3.01035" stroke="black" stroke-width="6.0207"/>
<path d="M147.931 34.8252L129.459 70.4376V89.457H118.502V70.4376L99.9518 34.8252H112.318L124.059 59.7931L135.721 34.8252H147.931ZM165.051 34.8252V68.6375C165.051 72.3422 166.017 75.186 167.947 77.1688C169.878 79.0994 172.591 80.0647 176.087 80.0647C179.636 80.0647 182.375 79.0994 184.306 77.1688C186.236 75.186 187.202 72.3422 187.202 68.6375V34.8252H198.238V68.5592C198.238 73.2032 197.22 77.1427 195.185 80.3778C193.202 83.5608 190.515 85.961 187.123 87.5786C183.784 89.1961 180.053 90.0049 175.931 90.0049C171.861 90.0049 168.156 89.1961 164.817 87.5786C161.529 85.961 158.92 83.5608 156.99 80.3778C155.059 77.1427 154.094 73.2032 154.094 68.5592V34.8252H165.051ZM268.387 34.8252V89.457H257.43V53.9229L242.793 89.457H234.497L219.782 53.9229V89.457H208.825V34.8252H221.269L238.645 75.4469L256.021 34.8252H268.387ZM338.784 34.8252V89.457H327.826V53.9229L313.19 89.457H304.893L290.179 53.9229V89.457H279.221V34.8252H291.666L309.041 75.4469L326.417 34.8252H338.784ZM393.057 34.8252L374.585 70.4376V89.457H363.627V70.4376L345.078 34.8252H357.444L369.185 59.7931L380.847 34.8252H393.057Z" fill="black"/>
<path d="M968.758 26.2393C961.185 26.1967 955.001 33.3396 954.952 42.1771C954.909 49.7452 959.375 56.1342 965.412 57.8283L962.929 94.8747C962.752 97.3802 964.674 99.4581 967.194 99.4722L969.485 99.4851C972.004 99.4993 973.933 97.4594 973.801 94.9359L971.734 57.8639C977.789 56.2215 982.326 49.9157 982.369 42.3314C982.435 33.4939 976.332 26.2819 968.758 26.2393ZM1014.85 26.4986L1010.92 49.3605L1008.06 49.3444L1006.28 26.4504L1004.38 26.4397L1002.35 49.3123L999.493 49.2962L995.802 26.3914L993.9 26.3807L993.733 56.1322C993.726 57.4017 994.745 58.4328 996.012 58.4399L1001.96 58.4734L999.512 95.0968C999.336 97.6023 1001.26 99.6801 1003.78 99.6943L1006.07 99.7072C1008.59 99.7214 1010.52 97.6815 1010.38 95.158L1008.35 58.5093L1014.3 58.5428C1015.56 58.5499 1016.59 57.5304 1016.6 56.2609L1016.77 26.5094L1014.85 26.4986Z" fill="black"/>
<rect x="937.171" y="3.46152" width="105.362" height="114.393" rx="3.01035" stroke="black" stroke-width="6.0207"/>
</svg>
