<svg width="452" height="45" viewBox="0 0 452 45" fill="none" xmlns="http://www.w3.org/2000/svg">
<path d="M25.864 35.472C25.928 35.632 25.944 35.76 25.912 35.856C25.88 35.952 25.784 36 25.624 36H22.552C22.2 36 21.96 35.888 21.832 35.664L10.504 17.232C10.312 16.976 10.088 16.992 9.832 17.28L3.976 23.856C3.72 24.112 3.592 24.4 3.592 24.72V35.424C3.592 35.808 3.384 36 2.968 36H0.616C0.392 36 0.232 35.968 0.136 35.904C0.0400002 35.808 -0.0079999 35.648 -0.0079999 35.424V0.863997C-0.0079999 0.543998 0.152 0.383998 0.472 0.383998H3.16C3.448 0.383998 3.592 0.543998 3.592 0.863997V19.344C3.592 19.536 3.624 19.648 3.688 19.68C3.752 19.68 3.864 19.6 4.024 19.44L20.824 0.719999C20.92 0.591999 21.016 0.511999 21.112 0.48C21.24 0.415998 21.416 0.383998 21.64 0.383998H24.328C24.552 0.383998 24.68 0.447998 24.712 0.575998C24.776 0.671999 24.744 0.783999 24.616 0.912L12.904 13.872C12.808 14 12.808 14.16 12.904 14.352L25.864 35.472ZM32.7006 36C32.5086 36 32.3646 35.952 32.2686 35.856C32.1726 35.76 32.1246 35.616 32.1246 35.424V11.088C32.1246 10.736 32.2846 10.56 32.6046 10.56H34.6686C34.9566 10.56 35.1006 10.72 35.1006 11.04V14.208C35.1006 14.368 35.1486 14.464 35.2446 14.496C35.3406 14.528 35.4526 14.48 35.5806 14.352C36.4446 13.328 37.2926 12.512 38.1246 11.904C38.9566 11.264 39.7726 10.8 40.5726 10.512C41.4046 10.224 42.2366 10.08 43.0686 10.08C44.2206 10.08 44.7966 10.272 44.7966 10.656V12.864C44.7966 13.12 44.6686 13.232 44.4126 13.2C44.1886 13.168 43.9166 13.136 43.5966 13.104C43.3086 13.072 42.9566 13.056 42.5406 13.056C41.8046 13.056 41.0206 13.232 40.1886 13.584C39.3566 13.904 38.5726 14.352 37.8366 14.928C37.1006 15.504 36.4926 16.144 36.0126 16.848C35.5326 17.552 35.2926 18.272 35.2926 19.008V35.424C35.2926 35.808 35.0846 36 34.6686 36H32.7006ZM53.152 35.28C53.152 35.568 53.104 35.76 53.008 35.856C52.912 35.952 52.704 36 52.384 36H50.608C50.352 36 50.176 35.968 50.08 35.904C50.016 35.808 49.984 35.648 49.984 35.424V11.136C49.984 10.752 50.16 10.56 50.512 10.56H52.624C52.976 10.56 53.152 10.752 53.152 11.136V35.28ZM53.344 4.752C53.344 5.328 53.104 5.616 52.624 5.616H50.416C50.16 5.616 49.984 5.552 49.888 5.424C49.824 5.296 49.792 5.104 49.792 4.848V1.104C49.792 0.623998 50 0.383998 50.416 0.383998H52.72C53.136 0.383998 53.344 0.607998 53.344 1.056V4.752ZM76.3083 15.936C75.6043 14.912 74.6443 14.096 73.4283 13.488C72.2443 12.848 70.8203 12.528 69.1562 12.528C67.3003 12.528 65.7483 12.928 64.5003 13.728C63.2843 14.496 62.6763 15.568 62.6763 16.944C62.6763 17.68 62.9483 18.384 63.4922 19.056C64.0683 19.696 65.2043 20.288 66.9003 20.832L73.1403 22.752C75.2203 23.36 76.7403 24.224 77.7003 25.344C78.6603 26.432 79.1403 27.712 79.1403 29.184C79.1403 30.624 78.6923 31.888 77.7963 32.976C76.9323 34.064 75.7323 34.928 74.1963 35.568C72.6603 36.176 70.9323 36.48 69.0123 36.48C66.5803 36.48 64.4203 35.984 62.5323 34.992C60.6763 34 59.3483 32.72 58.5483 31.152C58.4843 31.024 58.4523 30.912 58.4523 30.816C58.4523 30.72 58.5163 30.624 58.6443 30.528L60.1803 29.616C60.3083 29.552 60.4203 29.536 60.5163 29.568C60.6443 29.568 60.7403 29.616 60.8043 29.712C61.3483 30.576 62.0043 31.328 62.7723 31.968C63.5403 32.608 64.4363 33.104 65.4603 33.456C66.5163 33.808 67.7163 33.984 69.0603 33.984C70.3723 33.984 71.5563 33.808 72.6123 33.456C73.6683 33.072 74.5003 32.544 75.1083 31.872C75.7483 31.2 76.0683 30.416 76.0683 29.52C76.0683 28.56 75.6683 27.744 74.8683 27.072C74.1003 26.368 72.7883 25.76 70.9323 25.248L66.0363 23.808C63.6043 23.104 61.9243 22.224 60.9963 21.168C60.1003 20.08 59.6523 18.864 59.6523 17.52C59.6523 16.016 60.0523 14.72 60.8523 13.632C61.6843 12.512 62.8203 11.648 64.2603 11.04C65.7003 10.4 67.3483 10.08 69.2043 10.08C71.2843 10.08 73.1403 10.48 74.7723 11.28C76.4043 12.08 77.6683 13.168 78.5643 14.544C78.6603 14.64 78.7083 14.736 78.7083 14.832C78.7083 14.928 78.6443 15.008 78.5163 15.072L76.8843 16.032C76.7883 16.064 76.6923 16.08 76.5963 16.08C76.5003 16.08 76.4043 16.032 76.3083 15.936ZM90.6179 13.008C90.3619 13.008 90.2339 13.136 90.2339 13.392V29.52C90.2339 31.152 90.4899 32.224 91.0019 32.736C91.5139 33.248 92.2659 33.504 93.2579 33.504H96.7619C96.9219 33.504 97.0339 33.552 97.0979 33.648C97.1939 33.712 97.2419 33.824 97.2419 33.984V35.28C97.2419 35.536 97.0819 35.712 96.7619 35.808C96.4739 35.84 96.0419 35.872 95.4659 35.904C94.9219 35.936 94.3779 35.968 93.8339 36C93.2899 36 92.8739 36 92.5859 36C90.6019 36 89.1779 35.552 88.3139 34.656C87.4819 33.728 87.0659 32.24 87.0659 30.192V13.44C87.0659 13.152 86.9219 13.008 86.6339 13.008H82.5539C82.2659 13.008 82.1219 12.88 82.1219 12.624V10.944C82.1219 10.688 82.2499 10.56 82.5059 10.56H86.7779C86.9699 10.56 87.0819 10.432 87.1139 10.176L87.5939 2.496C87.5939 2.112 87.7379 1.92 88.0259 1.92H89.7539C90.1059 1.92 90.2819 2.128 90.2819 2.544V10.176C90.2819 10.432 90.3939 10.56 90.6179 10.56H96.9539C97.2099 10.56 97.3379 10.688 97.3379 10.944V12.624C97.3379 12.88 97.1939 13.008 96.9059 13.008H90.6179ZM106.074 35.28C106.074 35.568 106.026 35.76 105.93 35.856C105.834 35.952 105.626 36 105.306 36H103.53C103.274 36 103.098 35.968 103.002 35.904C102.938 35.808 102.906 35.648 102.906 35.424V11.136C102.906 10.752 103.082 10.56 103.434 10.56H105.546C105.898 10.56 106.074 10.752 106.074 11.136V35.28ZM106.266 4.752C106.266 5.328 106.026 5.616 105.546 5.616H103.338C103.082 5.616 102.906 5.552 102.81 5.424C102.746 5.296 102.714 5.104 102.714 4.848V1.104C102.714 0.623998 102.922 0.383998 103.338 0.383998H105.642C106.058 0.383998 106.266 0.607998 106.266 1.056V4.752ZM114.638 36C114.254 36 114.062 35.808 114.062 35.424V11.088C114.062 10.736 114.222 10.56 114.542 10.56H116.606C116.926 10.56 117.086 10.72 117.086 11.04V13.872C117.086 14.032 117.118 14.144 117.182 14.208C117.278 14.24 117.39 14.176 117.518 14.016C118.638 13.184 119.662 12.48 120.59 11.904C121.518 11.296 122.462 10.848 123.422 10.56C124.382 10.24 125.422 10.08 126.542 10.08C129.07 10.08 130.99 10.752 132.302 12.096C133.614 13.408 134.27 15.12 134.27 17.232V35.376C134.27 35.792 134.078 36 133.694 36H131.678C131.486 36 131.342 35.952 131.246 35.856C131.15 35.76 131.102 35.616 131.102 35.424V18.096C131.102 16.4 130.67 15.088 129.806 14.16C128.974 13.2 127.63 12.72 125.774 12.72C124.75 12.72 123.79 12.88 122.894 13.2C122.03 13.488 121.15 13.936 120.254 14.544C119.358 15.12 118.35 15.872 117.23 16.8V35.424C117.23 35.808 117.022 36 116.606 36H114.638ZM195.175 0.383998C195.399 0.383998 195.543 0.447998 195.607 0.575998C195.703 0.703999 195.735 0.863998 195.703 1.056L185.767 35.376C185.639 35.792 185.335 36 184.855 36H182.503C181.959 36 181.623 35.808 181.495 35.424L173.383 6.624C173.351 6.464 173.303 6.384 173.239 6.384C173.207 6.384 173.159 6.464 173.095 6.624L164.887 35.376C164.759 35.792 164.455 36 163.975 36H161.575C161.031 36 160.695 35.808 160.567 35.424L150.823 1.104C150.791 0.879998 150.823 0.703999 150.919 0.575998C151.015 0.447998 151.175 0.383998 151.399 0.383998H153.703C153.927 0.383998 154.087 0.415998 154.183 0.48C154.311 0.543999 154.391 0.671998 154.423 0.863997L162.679 30.432C162.775 30.752 162.871 30.912 162.967 30.912C163.063 30.88 163.159 30.704 163.255 30.384L171.655 0.815998C171.719 0.719997 171.799 0.623998 171.895 0.527999C171.991 0.431998 172.167 0.383998 172.423 0.383998H174.535C174.791 0.383998 174.967 0.415998 175.063 0.48C175.159 0.543999 175.223 0.671998 175.255 0.863997L183.559 30.48C183.655 30.768 183.751 30.912 183.847 30.912C183.943 30.912 184.039 30.768 184.135 30.48L192.535 0.815998C192.567 0.655998 192.647 0.543999 192.775 0.48C192.903 0.415998 193.063 0.383998 193.255 0.383998H195.175ZM200.775 24.72C200.775 26.352 201.175 27.872 201.975 29.28C202.775 30.688 203.831 31.824 205.143 32.688C206.487 33.52 207.991 33.936 209.655 33.936C211.415 33.936 212.935 33.584 214.215 32.88C215.527 32.176 216.631 31.136 217.527 29.76C217.623 29.6 217.719 29.52 217.815 29.52C217.911 29.488 218.023 29.504 218.151 29.568L219.783 30.48C220.039 30.608 220.055 30.8 219.831 31.056C219.031 32.272 218.119 33.28 217.095 34.08C216.103 34.88 214.967 35.488 213.687 35.904C212.407 36.288 210.999 36.48 209.463 36.48C207.095 36.48 205.015 35.936 203.223 34.848C201.431 33.76 200.023 32.24 198.999 30.288C197.975 28.304 197.463 26.048 197.463 23.52C197.463 20.704 197.991 18.304 199.047 16.32C200.103 14.336 201.527 12.8 203.319 11.712C205.111 10.624 207.143 10.08 209.415 10.08C211.719 10.08 213.719 10.592 215.415 11.616C217.111 12.64 218.423 14.112 219.351 16.032C220.279 17.952 220.743 20.272 220.743 22.992C220.743 23.216 220.711 23.44 220.647 23.664C220.615 23.888 220.423 24 220.071 24H201.111C201.015 24 200.935 24.08 200.871 24.24C200.807 24.368 200.775 24.528 200.775 24.72ZM216.711 21.744C217.063 21.744 217.287 21.696 217.383 21.6C217.479 21.504 217.527 21.328 217.527 21.072C217.527 19.536 217.191 18.128 216.519 16.848C215.879 15.536 214.951 14.496 213.735 13.728C212.551 12.928 211.127 12.528 209.463 12.528C207.575 12.528 205.991 12.992 204.711 13.92C203.431 14.816 202.455 15.968 201.783 17.376C201.143 18.784 200.823 20.24 200.823 21.744H216.711ZM245.035 36C244.843 36 244.683 35.952 244.555 35.856C244.459 35.728 244.411 35.568 244.411 35.376V33.168C244.411 32.912 244.363 32.768 244.267 32.736C244.171 32.704 244.027 32.784 243.835 32.976C243.515 33.296 243.035 33.744 242.395 34.32C241.755 34.864 240.923 35.36 239.899 35.808C238.875 36.256 237.627 36.48 236.155 36.48C234.139 36.48 232.315 36.016 230.683 35.088C229.051 34.128 227.739 32.704 226.747 30.816C225.787 28.896 225.307 26.528 225.307 23.712C225.307 20.992 225.787 18.624 226.747 16.608C227.707 14.56 229.051 12.96 230.779 11.808C232.507 10.656 234.491 10.08 236.731 10.08C238.395 10.08 239.755 10.352 240.811 10.896C241.899 11.44 242.827 12.032 243.595 12.672C243.883 12.896 244.075 12.976 244.171 12.912C244.267 12.848 244.315 12.656 244.315 12.336V0.959999C244.315 0.575998 244.491 0.383998 244.843 0.383998H247.003C247.323 0.383998 247.483 0.559999 247.483 0.912V35.328C247.483 35.584 247.435 35.76 247.339 35.856C247.243 35.952 247.067 36 246.811 36H245.035ZM244.315 15.936C243.227 14.88 242.123 14.064 241.003 13.488C239.915 12.88 238.699 12.576 237.355 12.576C235.659 12.576 234.139 13.008 232.795 13.872C231.483 14.704 230.443 15.936 229.675 17.568C228.939 19.2 228.571 21.184 228.571 23.52C228.571 25.952 228.955 27.952 229.723 29.52C230.523 31.056 231.563 32.192 232.843 32.928C234.123 33.664 235.515 34.032 237.019 34.032C238.395 34.032 239.627 33.696 240.715 33.024C241.835 32.352 242.715 31.536 243.355 30.576C243.995 29.616 244.315 28.688 244.315 27.792V15.936ZM258.605 35.28C258.605 35.568 258.557 35.76 258.461 35.856C258.365 35.952 258.157 36 257.837 36H256.061C255.805 36 255.629 35.968 255.533 35.904C255.469 35.808 255.437 35.648 255.437 35.424V11.136C255.437 10.752 255.613 10.56 255.965 10.56H258.077C258.429 10.56 258.605 10.752 258.605 11.136V35.28ZM258.797 4.752C258.797 5.328 258.557 5.616 258.077 5.616H255.869C255.613 5.616 255.437 5.552 255.341 5.424C255.277 5.296 255.245 5.104 255.245 4.848V1.104C255.245 0.623998 255.453 0.383998 255.869 0.383998H258.173C258.589 0.383998 258.797 0.607998 258.797 1.056V4.752ZM288.817 10.32C289.169 10.32 289.409 10.384 289.537 10.512C289.665 10.608 289.729 10.784 289.729 11.04V12.24C289.729 12.528 289.665 12.752 289.537 12.912C289.441 13.04 289.217 13.104 288.865 13.104C288.289 13.104 287.809 13.152 287.425 13.248C287.041 13.312 286.673 13.424 286.321 13.584C285.521 13.936 285.201 14.304 285.361 14.688C285.489 15.072 285.665 15.536 285.889 16.08C286.113 16.624 286.225 17.344 286.225 18.24C286.225 19.648 285.873 20.944 285.169 22.128C284.465 23.312 283.361 24.256 281.857 24.96C280.353 25.632 278.433 25.968 276.097 25.968C274.401 25.968 273.057 26.08 272.065 26.304C271.105 26.496 270.417 26.768 270.001 27.12C269.617 27.44 269.425 27.776 269.425 28.128C269.425 28.672 269.793 29.072 270.529 29.328C271.265 29.552 272.481 29.712 274.177 29.808L280.177 30.144C282.897 30.304 284.881 30.976 286.129 32.16C287.409 33.312 288.049 34.832 288.049 36.72C288.049 39.152 286.993 41.04 284.881 42.384C282.801 43.728 279.857 44.4 276.049 44.4C272.145 44.4 269.153 43.792 267.073 42.576C265.025 41.392 264.001 39.696 264.001 37.488C264.001 36.368 264.369 35.344 265.105 34.416C265.873 33.456 266.977 32.592 268.417 31.824C268.801 31.664 268.801 31.488 268.417 31.296C267.777 31.008 267.281 30.64 266.929 30.192C266.577 29.744 266.401 29.232 266.401 28.656C266.401 28.24 266.529 27.824 266.785 27.408C267.041 26.992 267.425 26.608 267.937 26.256C268.449 25.872 269.121 25.552 269.953 25.296C270.145 25.232 270.225 25.152 270.193 25.056C270.193 24.928 270.097 24.816 269.905 24.72C268.561 23.984 267.553 23.088 266.881 22.032C266.241 20.976 265.921 19.712 265.921 18.24C265.921 15.744 266.833 13.776 268.657 12.336C270.513 10.896 273.121 10.176 276.481 10.176C278.113 10.176 279.489 10.368 280.609 10.752C281.761 11.104 282.737 11.632 283.537 12.336C283.697 12.464 283.857 12.544 284.017 12.576C284.177 12.576 284.337 12.496 284.497 12.336C284.849 12.048 285.249 11.744 285.697 11.424C286.145 11.104 286.641 10.848 287.185 10.656C287.729 10.432 288.273 10.32 288.817 10.32ZM276.145 23.712C278.513 23.712 280.273 23.232 281.425 22.272C282.609 21.312 283.201 19.952 283.201 18.192C283.201 16.368 282.609 14.96 281.425 13.968C280.273 12.944 278.513 12.432 276.145 12.432C273.841 12.432 272.065 12.944 270.817 13.968C269.569 14.96 268.945 16.368 268.945 18.192C268.945 19.984 269.569 21.36 270.817 22.32C272.065 23.248 273.841 23.712 276.145 23.712ZM271.729 32.496C271.185 32.464 270.529 32.64 269.761 33.024C269.025 33.408 268.369 33.952 267.793 34.656C267.217 35.36 266.929 36.192 266.929 37.152C266.929 38.208 267.297 39.104 268.033 39.84C268.769 40.608 269.841 41.184 271.249 41.568C272.689 41.984 274.433 42.192 276.481 42.192C279.265 42.192 281.377 41.76 282.817 40.896C284.257 40.064 284.977 38.784 284.977 37.056C284.977 35.872 284.593 34.928 283.825 34.224C283.089 33.488 281.793 33.072 279.937 32.976L271.729 32.496ZM307.132 0.383998C307.292 0.383998 307.676 0.383998 308.284 0.383998C308.924 0.383998 309.628 0.399998 310.396 0.431997C311.164 0.431997 311.868 0.431997 312.508 0.431997C313.148 0.431997 313.58 0.431997 313.804 0.431997C318.252 0.463999 321.836 1.152 324.556 2.496C327.308 3.808 329.308 5.744 330.556 8.304C331.836 10.864 332.476 14.048 332.476 17.856C332.476 21.952 331.772 25.344 330.364 28.032C328.988 30.72 326.876 32.72 324.028 34.032C321.212 35.344 317.612 36 313.228 36H307.084C306.7 36 306.508 35.792 306.508 35.376V0.959999C306.508 0.767998 306.556 0.623998 306.652 0.527999C306.748 0.431998 306.908 0.383998 307.132 0.383998ZM310.588 3.264C310.268 3.264 310.108 3.488 310.108 3.936V32.688C310.108 33.008 310.3 33.168 310.684 33.168H312.748C316.524 33.168 319.58 32.688 321.916 31.728C324.252 30.736 325.964 29.136 327.052 26.928C328.14 24.72 328.684 21.808 328.684 18.192C328.684 14.288 328.108 11.264 326.956 9.12C325.836 6.976 324.108 5.472 321.772 4.608C319.468 3.712 316.524 3.264 312.94 3.264H310.588ZM341.493 24.72C341.493 26.352 341.893 27.872 342.693 29.28C343.493 30.688 344.549 31.824 345.861 32.688C347.205 33.52 348.709 33.936 350.373 33.936C352.133 33.936 353.653 33.584 354.933 32.88C356.245 32.176 357.349 31.136 358.245 29.76C358.341 29.6 358.437 29.52 358.533 29.52C358.629 29.488 358.741 29.504 358.869 29.568L360.501 30.48C360.757 30.608 360.773 30.8 360.549 31.056C359.749 32.272 358.837 33.28 357.813 34.08C356.821 34.88 355.685 35.488 354.405 35.904C353.125 36.288 351.717 36.48 350.181 36.48C347.813 36.48 345.733 35.936 343.941 34.848C342.149 33.76 340.741 32.24 339.717 30.288C338.693 28.304 338.181 26.048 338.181 23.52C338.181 20.704 338.709 18.304 339.765 16.32C340.821 14.336 342.245 12.8 344.037 11.712C345.829 10.624 347.861 10.08 350.133 10.08C352.437 10.08 354.437 10.592 356.133 11.616C357.829 12.64 359.141 14.112 360.069 16.032C360.997 17.952 361.461 20.272 361.461 22.992C361.461 23.216 361.429 23.44 361.365 23.664C361.333 23.888 361.141 24 360.789 24H341.829C341.733 24 341.653 24.08 341.589 24.24C341.525 24.368 341.493 24.528 341.493 24.72ZM357.429 21.744C357.781 21.744 358.005 21.696 358.101 21.6C358.197 21.504 358.245 21.328 358.245 21.072C358.245 19.536 357.909 18.128 357.237 16.848C356.597 15.536 355.669 14.496 354.453 13.728C353.269 12.928 351.845 12.528 350.181 12.528C348.293 12.528 346.709 12.992 345.429 13.92C344.149 14.816 343.173 15.968 342.501 17.376C341.861 18.784 341.541 20.24 341.541 21.744H357.429ZM382.73 15.936C382.026 14.912 381.066 14.096 379.85 13.488C378.666 12.848 377.242 12.528 375.578 12.528C373.722 12.528 372.17 12.928 370.922 13.728C369.706 14.496 369.098 15.568 369.098 16.944C369.098 17.68 369.37 18.384 369.914 19.056C370.49 19.696 371.626 20.288 373.322 20.832L379.562 22.752C381.642 23.36 383.162 24.224 384.122 25.344C385.082 26.432 385.562 27.712 385.562 29.184C385.562 30.624 385.114 31.888 384.218 32.976C383.354 34.064 382.154 34.928 380.618 35.568C379.082 36.176 377.354 36.48 375.434 36.48C373.002 36.48 370.842 35.984 368.954 34.992C367.098 34 365.77 32.72 364.97 31.152C364.906 31.024 364.874 30.912 364.874 30.816C364.874 30.72 364.938 30.624 365.066 30.528L366.602 29.616C366.73 29.552 366.842 29.536 366.938 29.568C367.066 29.568 367.162 29.616 367.226 29.712C367.77 30.576 368.426 31.328 369.194 31.968C369.962 32.608 370.858 33.104 371.882 33.456C372.938 33.808 374.138 33.984 375.482 33.984C376.794 33.984 377.978 33.808 379.034 33.456C380.09 33.072 380.922 32.544 381.53 31.872C382.17 31.2 382.49 30.416 382.49 29.52C382.49 28.56 382.09 27.744 381.29 27.072C380.522 26.368 379.21 25.76 377.354 25.248L372.458 23.808C370.026 23.104 368.346 22.224 367.418 21.168C366.522 20.08 366.074 18.864 366.074 17.52C366.074 16.016 366.474 14.72 367.274 13.632C368.106 12.512 369.242 11.648 370.682 11.04C372.122 10.4 373.77 10.08 375.626 10.08C377.706 10.08 379.562 10.48 381.194 11.28C382.826 12.08 384.09 13.168 384.986 14.544C385.082 14.64 385.13 14.736 385.13 14.832C385.13 14.928 385.066 15.008 384.938 15.072L383.306 16.032C383.21 16.064 383.114 16.08 383.018 16.08C382.922 16.08 382.826 16.032 382.73 15.936ZM395.058 35.28C395.058 35.568 395.01 35.76 394.914 35.856C394.818 35.952 394.61 36 394.29 36H392.514C392.258 36 392.082 35.968 391.986 35.904C391.922 35.808 391.89 35.648 391.89 35.424V11.136C391.89 10.752 392.066 10.56 392.418 10.56H394.53C394.882 10.56 395.058 10.752 395.058 11.136V35.28ZM395.25 4.752C395.25 5.328 395.01 5.616 394.53 5.616H392.322C392.066 5.616 391.89 5.552 391.794 5.424C391.73 5.296 391.698 5.104 391.698 4.848V1.104C391.698 0.623998 391.906 0.383998 392.322 0.383998H394.626C395.042 0.383998 395.25 0.607998 395.25 1.056V4.752ZM425.271 10.32C425.623 10.32 425.863 10.384 425.991 10.512C426.119 10.608 426.182 10.784 426.182 11.04V12.24C426.182 12.528 426.119 12.752 425.991 12.912C425.895 13.04 425.671 13.104 425.319 13.104C424.743 13.104 424.263 13.152 423.879 13.248C423.495 13.312 423.127 13.424 422.775 13.584C421.975 13.936 421.655 14.304 421.815 14.688C421.943 15.072 422.119 15.536 422.343 16.08C422.567 16.624 422.679 17.344 422.679 18.24C422.679 19.648 422.327 20.944 421.623 22.128C420.919 23.312 419.815 24.256 418.311 24.96C416.807 25.632 414.887 25.968 412.551 25.968C410.855 25.968 409.511 26.08 408.519 26.304C407.559 26.496 406.871 26.768 406.455 27.12C406.071 27.44 405.879 27.776 405.879 28.128C405.879 28.672 406.247 29.072 406.983 29.328C407.719 29.552 408.935 29.712 410.631 29.808L416.631 30.144C419.351 30.304 421.335 30.976 422.583 32.16C423.863 33.312 424.503 34.832 424.503 36.72C424.503 39.152 423.447 41.04 421.335 42.384C419.255 43.728 416.311 44.4 412.503 44.4C408.599 44.4 405.607 43.792 403.527 42.576C401.479 41.392 400.455 39.696 400.455 37.488C400.455 36.368 400.823 35.344 401.559 34.416C402.327 33.456 403.431 32.592 404.871 31.824C405.255 31.664 405.255 31.488 404.871 31.296C404.231 31.008 403.735 30.64 403.383 30.192C403.031 29.744 402.855 29.232 402.855 28.656C402.855 28.24 402.983 27.824 403.239 27.408C403.495 26.992 403.879 26.608 404.391 26.256C404.903 25.872 405.575 25.552 406.407 25.296C406.599 25.232 406.679 25.152 406.647 25.056C406.647 24.928 406.551 24.816 406.359 24.72C405.015 23.984 404.007 23.088 403.335 22.032C402.695 20.976 402.375 19.712 402.375 18.24C402.375 15.744 403.287 13.776 405.111 12.336C406.967 10.896 409.575 10.176 412.935 10.176C414.567 10.176 415.943 10.368 417.063 10.752C418.215 11.104 419.191 11.632 419.991 12.336C420.151 12.464 420.311 12.544 420.471 12.576C420.631 12.576 420.791 12.496 420.951 12.336C421.303 12.048 421.703 11.744 422.151 11.424C422.599 11.104 423.095 10.848 423.639 10.656C424.183 10.432 424.727 10.32 425.271 10.32ZM412.599 23.712C414.967 23.712 416.727 23.232 417.879 22.272C419.063 21.312 419.655 19.952 419.655 18.192C419.655 16.368 419.063 14.96 417.879 13.968C416.727 12.944 414.967 12.432 412.599 12.432C410.295 12.432 408.519 12.944 407.271 13.968C406.023 14.96 405.398 16.368 405.398 18.192C405.398 19.984 406.023 21.36 407.271 22.32C408.519 23.248 410.295 23.712 412.599 23.712ZM408.183 32.496C407.639 32.464 406.983 32.64 406.215 33.024C405.479 33.408 404.823 33.952 404.247 34.656C403.671 35.36 403.383 36.192 403.383 37.152C403.383 38.208 403.751 39.104 404.487 39.84C405.223 40.608 406.295 41.184 407.703 41.568C409.143 41.984 410.887 42.192 412.935 42.192C415.719 42.192 417.831 41.76 419.271 40.896C420.711 40.064 421.431 38.784 421.431 37.056C421.431 35.872 421.047 34.928 420.279 34.224C419.543 33.488 418.247 33.072 416.391 32.976L408.183 32.496ZM432.123 36C431.739 36 431.547 35.808 431.547 35.424V11.088C431.547 10.736 431.707 10.56 432.027 10.56H434.091C434.411 10.56 434.571 10.72 434.571 11.04V13.872C434.571 14.032 434.603 14.144 434.667 14.208C434.763 14.24 434.875 14.176 435.003 14.016C436.123 13.184 437.147 12.48 438.075 11.904C439.003 11.296 439.947 10.848 440.907 10.56C441.867 10.24 442.907 10.08 444.027 10.08C446.555 10.08 448.475 10.752 449.787 12.096C451.099 13.408 451.755 15.12 451.755 17.232V35.376C451.755 35.792 451.563 36 451.179 36H449.163C448.971 36 448.827 35.952 448.731 35.856C448.635 35.76 448.587 35.616 448.587 35.424V18.096C448.587 16.4 448.155 15.088 447.291 14.16C446.459 13.2 445.115 12.72 443.259 12.72C442.235 12.72 441.275 12.88 440.379 13.2C439.515 13.488 438.635 13.936 437.739 14.544C436.843 15.12 435.835 15.872 434.715 16.8V35.424C434.715 35.808 434.507 36 434.091 36H432.123Z" fill="white"/>
</svg>
