<svg width="112" height="142" viewBox="0 0 112 142" fill="none" xmlns="http://www.w3.org/2000/svg">
<path d="M33.63 30.5166C28.8593 15.3988 40.1473 0 56 0V0C71.8527 0 83.1407 15.3988 78.37 30.5166L68.0716 63.151C66.4093 68.4185 61.5235 72 56 72V72C50.4765 72 45.5907 68.4185 43.9284 63.151L33.63 30.5166Z" fill="#482712"/>
<path d="M26 140C26 137.239 28.2386 135 31 135H47V140H26Z" fill="#482712"/>
<rect width="18.5976" height="50.7449" rx="9.29882" transform="matrix(0.966506 -0.256645 0.261009 0.965336 22 92.7729)" fill="#482712"/>
<path d="M85 140C85 137.239 82.7614 135 80 135H64V140H85Z" fill="#482712"/>
<rect width="18.5976" height="50.7449" rx="9.29882" transform="matrix(-0.966506 -0.256645 -0.261009 0.965336 89.2195 92.7729)" fill="#482712"/>
<path d="M43.4802 54.162C44.4699 48.2952 49.5503 44 55.5 44C61.4497 44 66.5301 48.2952 67.5198 54.162L77.5919 113.869C79.8978 127.538 69.3622 140 55.5 140C41.6378 140 31.1022 127.538 33.4081 113.869L43.4802 54.162Z" fill="#482712"/>
<path d="M47.2857 132H38.7143C36.3474 132 33 135.582 33 140H53C53 135.582 49.6526 132 47.2857 132Z" fill="#E8904F"/>
<path d="M39 140C39 137.667 39 133.778 41 133" stroke="black"/>
<path d="M48 140C48 137.667 48 133.778 46 133" stroke="black"/>
<path d="M72.2857 132H63.7143C61.3474 132 58 135.582 58 140H78C78 135.582 74.6526 132 72.2857 132Z" fill="#E8904F"/>
<path d="M64 140C64 137.667 64 133.778 65 133" stroke="black"/>
<path d="M72 140C72 137.667 72 133.778 70 133" stroke="black"/>
<ellipse cx="7.53545" cy="7.37174" rx="7.53545" ry="7.37174" transform="matrix(-1 0 0 1 86.0708 2)" fill="#482712"/>
<ellipse cx="10.5496" cy="10.3204" rx="10.5496" ry="10.3204" transform="matrix(-1 0 0 1 110.184 25.5895)" fill="#482712"/>
<path d="M107.17 28.5383L84.5636 4.94873L71.1841 11L83.4998 64.5L107.17 28.5383Z" fill="#482712"/>
<path d="M110 61L110.184 35.9099L90.4998 41L83.4998 60.5L110 61Z" fill="#482712"/>
<ellipse cx="13.5" cy="13" rx="13.5" ry="13" transform="matrix(-1 0 0 1 110 48)" fill="#482712"/>
<ellipse cx="31.6487" cy="9.37174" rx="7.53545" ry="7.37174" fill="#482712"/>
<ellipse cx="10.5496" cy="35.9099" rx="10.5496" ry="10.3204" fill="#482712"/>
<path d="M3.01416 28.5383L25.6205 4.94873L39 11L26.6843 64.5L3.01416 28.5383Z" fill="#482712"/>
<ellipse cx="13.6846" cy="61" rx="13.5" ry="13" fill="#482712"/>
<path d="M0.184326 60.0901L0 35L19.6843 40.0901L26.6843 59.5901L0.184326 60.0901Z" fill="#482712"/>
<circle cx="43" cy="25" r="3" fill="black"/>
<circle cx="69" cy="25" r="3" fill="black"/>
<path d="M49.8065 67.7888C54.3484 68.7534 55.828 66.1811 56 64.7745V20H54C54 20 50.934 31.0019 48.1935 37.4543C45.7887 43.1167 40 50.9087 40 50.9087L43.6129 62.9659C43.7849 64.1716 45.2645 66.8242 49.8065 67.7888Z" fill="#E8904F"/>
<path d="M61.8065 67.7888C57.5484 68.7534 56.1613 66.1811 56 64.7745V20H58C58 20 60.5989 30.9782 63.1935 37.4543C65.4528 43.0932 71 50.9087 71 50.9087L67.6129 62.9659C67.4516 64.1716 66.0645 66.8242 61.8065 67.7888Z" fill="#E8904F"/>
<path d="M56 66.387C52.7794 69.465 46 68 44 63.9384L40.5 54" stroke="black"/>
<path d="M55 66.387C58.2206 69.465 65 68 67 63.9384L70.5 54" stroke="black"/>
<path d="M48 62C48 60.3431 49.3431 59 51 59H61C62.6569 59 64 60.3431 64 62V63H48V62Z" fill="black"/>
<ellipse cx="56" cy="63" rx="8" ry="4" fill="black"/>
</svg>
