<svg width="278" height="359" viewBox="0 0 278 359" fill="none" xmlns="http://www.w3.org/2000/svg">
<g filter="url(#filter0_d_507_764)">
<path d="M9.1709 350.726C9.1709 343.588 14.9578 337.801 22.0963 337.801H60.8727V350.726H9.1709V350.726Z" fill="#482712"/>
<rect x="-0.881836" y="231.93" width="45.9571" height="126.382" rx="22.9786" transform="rotate(-15 -0.881836 231.93)" fill="#9D8E7E"/>
<path d="M269.116 350.726C269.116 343.588 263.329 337.801 256.191 337.801H217.414V350.726H269.116V350.726Z" fill="#482712"/>
<rect width="45.9571" height="126.382" rx="22.9786" transform="matrix(-0.965926 -0.258819 -0.258819 0.965926 278.718 231.93)" fill="#9D8E7E"/>
</g>
<rect x="22.0957" y="138.172" width="229.786" height="212.552" rx="93.3504" fill="#F6D5A9"/>
<path d="M86.7232 333.492H69.4893C64.7303 333.492 58 341.208 58 350.726H98.2125C98.2125 341.208 91.4822 333.492 86.7232 333.492Z" fill="#482712"/>
<path d="M69.4893 350.726C69.4893 346.418 69.4893 339.237 72.3616 337.801" stroke="black" stroke-width="1.43616"/>
<path d="M85.2871 350.726C85.2871 346.418 85.2871 339.237 82.4148 337.801" stroke="black" stroke-width="1.43616"/>
<path d="M208.797 333.492H191.564C186.804 333.492 180.074 341.208 180.074 350.726H220.287C220.287 341.208 213.556 333.492 208.797 333.492Z" fill="#482712"/>
<path d="M193 350.726C193 346.418 193 339.237 195.872 337.801" stroke="black" stroke-width="1.43616"/>
<path d="M208.798 350.726C208.798 346.418 208.798 339.237 205.926 337.801" stroke="black" stroke-width="1.43616"/>
<path d="M34.3811 94.1406C36.3661 70.3214 56.2777 52 80.1795 52H195.233C219.134 52 239.046 70.3214 241.031 94.1406L244.104 131.014C248.29 181.252 208.644 224.339 158.232 224.339H117.18C66.7676 224.339 27.1218 181.252 31.3084 131.014L34.3811 94.1406Z" fill="#F6D5A9"/>
<ellipse cx="119.755" cy="144.156" rx="4.30848" ry="3.94944" fill="black"/>
<ellipse cx="157.095" cy="144.156" rx="4.30848" ry="3.94944" fill="black"/>
<path d="M74.2675 204.792C82.3787 164.508 120.618 150.182 138.723 148.055V250.182C128.294 250.182 118.928 247.345 115.548 245.926C111.927 250.891 93.5332 262.948 88.0277 262.948C82.0725 262.948 64.1284 255.146 74.2675 204.792Z" fill="#B9A592"/>
<path d="M203.251 204.792C195.13 164.508 156.849 150.182 138.723 148.055V250.182C149.164 250.182 158.541 247.345 161.924 245.926C165.549 250.891 181.079 262.948 189.475 262.948C194.719 262.948 213.401 255.146 203.251 204.792Z" fill="#B9A592"/>
<path d="M138.723 148.055C120.618 150.182 82.3789 164.508 74.2676 204.792" stroke="black" stroke-width="1.43616"/>
<path d="M108.564 241.406C111.197 244.518 121.203 250.023 137.288 250.023" stroke="black" stroke-width="1.43616"/>
<path d="M166.011 241.406C163.378 244.518 153.373 250.023 137.288 250.023" stroke="black" stroke-width="1.43616"/>
<path d="M138.724 160.98V170.316" stroke="black" stroke-width="1.43616"/>
<path d="M153.086 183.241C153.086 175.706 146.977 169.598 139.442 169.598C131.907 169.598 125.799 175.706 125.799 183.241" stroke="black" stroke-width="1.43616"/>
<path d="M126.516 178.215C124.218 178.215 124.123 172.47 124.362 169.598C124.362 172.47 127.952 173.667 129.388 173.906C128.67 175.103 126.516 177.64 126.516 178.215Z" stroke="black" stroke-width="1.43616" stroke-linejoin="round"/>
<path d="M152.367 178.215C154.665 178.215 154.76 172.47 154.521 169.598C154.521 172.47 150.931 173.667 149.494 173.906C150.212 175.103 152.367 177.64 152.367 178.215Z" stroke="black" stroke-width="1.43616" stroke-linejoin="round"/>
<path d="M138.723 148.055C156.829 150.182 195.067 164.508 203.179 204.792" stroke="black" stroke-width="1.43616"/>
<circle cx="127.953" cy="148.77" r="3.5904" fill="black"/>
<circle cx="149.495" cy="148.77" r="3.5904" fill="black"/>
<path d="M149.667 145.18H127.782L125.047 150.924L133.937 159.541C134.393 160.02 135.989 160.977 138.725 160.977C141.46 160.977 143.056 160.02 143.512 159.541C143.968 159.063 152.402 150.924 152.402 150.924L149.667 145.18Z" fill="black"/>
<path d="M56.5635 46.2539H83.8164C93.9928 46.2539 99.1454 58.5068 92.0274 65.7795L64.7745 93.6249C57.5732 100.983 45.0742 95.8841 45.0742 85.5885V57.7432C45.0742 51.3978 50.2181 46.2539 56.5635 46.2539Z" fill="#482712"/>
<path d="M217.413 46.2539H190.16C179.984 46.2539 174.831 58.5068 181.949 65.7795L209.202 93.6249C216.403 100.983 228.902 95.8841 228.902 85.5885V57.7432C228.902 51.3978 223.758 46.2539 217.413 46.2539Z" fill="#482712"/>
<path d="M144.169 141.612C144.169 147.273 151 151.861 157.211 152.464C165.244 153.244 167.147 147.273 167.147 141.612C167.147 135.952 161.179 129.555 155.348 129.555C149.517 129.555 144.169 135.952 144.169 141.612Z" fill="#B9A592"/>
<circle cx="119.754" cy="143.918" r="4.30848" fill="black"/>
<circle cx="157.094" cy="143.918" r="4.30848" fill="black"/>
<defs>
<filter id="filter0_d_507_764" x="0.276367" y="225.195" width="277.283" height="133.531" filterUnits="userSpaceOnUse" color-interpolation-filters="sRGB">
<feFlood flood-opacity="0" result="BackgroundImageFix"/>
<feColorMatrix in="SourceAlpha" type="matrix" values="0 0 0 0 0 0 0 0 0 0 0 0 0 0 0 0 0 0 127 0" result="hardAlpha"/>
<feOffset dy="4"/>
<feGaussianBlur stdDeviation="2"/>
<feComposite in2="hardAlpha" operator="out"/>
<feColorMatrix type="matrix" values="0 0 0 0 0 0 0 0 0 0 0 0 0 0 0 0 0 0 0.25 0"/>
<feBlend mode="normal" in2="BackgroundImageFix" result="effect1_dropShadow_507_764"/>
<feBlend mode="normal" in="SourceGraphic" in2="effect1_dropShadow_507_764" result="shape"/>
</filter>
</defs>
</svg>
