<svg width="275" height="347" viewBox="0 0 275 347" fill="none" xmlns="http://www.w3.org/2000/svg">
<path d="M10.7012 343.782C10.7012 336.787 16.3713 331.117 23.3657 331.117H61.3592V343.782H10.7012Z" fill="#482712"/>
<rect x="0.851562" y="227.387" width="45.0294" height="123.831" rx="22.5147" transform="rotate(-15 0.851562 227.387)" fill="#9D8E7E"/>
<path d="M265.4 343.782C265.4 336.787 259.73 331.117 252.736 331.117H214.742V343.782H265.4Z" fill="#482712"/>
<rect width="45.0294" height="123.831" rx="22.5147" transform="matrix(-0.965926 -0.258819 -0.258819 0.965926 274.81 227.387)" fill="#9D8E7E"/>
<rect x="23.3682" y="135.527" width="225.147" height="208.261" rx="91.4659" fill="#F6D5A9"/>
<path d="M35.4053 92.3876C37.3501 69.0492 56.8598 51.0977 80.2791 51.0977H193.009C216.429 51.0977 235.938 69.0492 237.883 92.3875L240.894 128.516C244.996 177.741 206.151 219.958 156.756 219.958H116.533C67.138 219.958 28.2925 177.741 32.3945 128.516L35.4053 92.3876Z" fill="#F6D5A9"/>
<ellipse cx="119.055" cy="141.393" rx="4.2215" ry="3.86971" fill="black"/>
<ellipse cx="155.64" cy="141.393" rx="4.2215" ry="3.86971" fill="black"/>
<path d="M74.5351 200.541C82.4827 161.071 119.95 147.034 137.69 144.949V245.014C127.471 245.014 118.294 242.235 114.983 240.845C111.435 245.709 93.4119 257.523 88.0175 257.523C82.1826 257.523 64.6007 249.879 74.5351 200.541Z" fill="#B9A592"/>
<path d="M200.914 200.541C192.958 161.071 155.449 147.034 137.689 144.949V245.014C147.919 245.014 157.107 242.235 160.422 240.845C163.974 245.709 179.19 257.523 187.417 257.523C192.555 257.523 210.86 249.879 200.914 200.541Z" fill="#B9A592"/>
<path d="M137.689 144.949C119.949 147.034 82.4817 161.071 74.5342 200.541" stroke="black" stroke-width="1.40717"/>
<path d="M108.139 236.414C110.718 239.463 120.522 244.857 136.282 244.857" stroke="black" stroke-width="1.40717"/>
<path d="M164.425 236.414C161.845 239.463 152.042 244.857 136.281 244.857" stroke="black" stroke-width="1.40717"/>
<path d="M137.689 157.613V166.76" stroke="black" stroke-width="1.40717"/>
<path d="M151.762 179.427C151.762 172.044 145.776 166.059 138.393 166.059C131.01 166.059 125.025 172.044 125.025 179.427" stroke="black" stroke-width="1.40717"/>
<path d="M125.729 174.502C123.477 174.502 123.383 168.873 123.618 166.059C123.618 168.873 127.136 170.046 128.543 170.28C127.839 171.453 125.729 173.939 125.729 174.502Z" stroke="black" stroke-width="1.40717" stroke-linejoin="round"/>
<path d="M151.057 174.502C153.308 174.502 153.402 168.873 153.167 166.059C153.167 168.873 149.649 170.046 148.242 170.28C148.946 171.453 151.057 173.939 151.057 174.502Z" stroke="black" stroke-width="1.40717" stroke-linejoin="round"/>
<path d="M137.688 144.949C155.428 147.034 192.895 161.071 200.843 200.541" stroke="black" stroke-width="1.40717"/>
<circle cx="127.135" cy="145.651" r="3.51792" fill="black"/>
<circle cx="148.243" cy="145.651" r="3.51792" fill="black"/>
<path d="M148.411 142.133H126.968L124.288 147.761L132.999 156.204C133.446 156.674 135.009 157.612 137.69 157.612C140.37 157.612 141.934 156.674 142.38 156.204C142.827 155.735 151.091 147.761 151.091 147.761L148.411 142.133Z" fill="black"/>
<path d="M57.1392 45.4688H83.8419C93.8129 45.4688 98.8615 57.4743 91.8872 64.6002L65.1845 91.8834C58.1285 99.0928 45.8818 94.097 45.8818 84.0093V56.7261C45.8818 50.5088 50.9219 45.4688 57.1392 45.4688Z" fill="#482712"/>
<path d="M214.742 45.4688H188.039C178.068 45.4688 173.019 57.4743 179.994 64.6002L206.696 91.8834C213.752 99.0928 225.999 94.097 225.999 84.0093V56.7261C225.999 50.5088 220.959 45.4688 214.742 45.4688Z" fill="#482712"/>
</svg>
