<svg width="215" height="349" viewBox="0 0 215 349" fill="none" xmlns="http://www.w3.org/2000/svg">
<path d="M28.7119 346.833C28.7119 341.547 32.9972 337.262 38.2833 337.262H70.8262V346.833H28.7119V346.833Z" fill="white"/>
<rect width="38.7125" height="92.8042" rx="19.3563" transform="matrix(0.974853 -0.222847 0.299646 0.95405 19.2324 259.75)" fill="#F6D5A9"/>
<path d="M184.323 346.833C184.323 341.547 180.038 337.262 174.752 337.262H142.209V346.833H184.323V346.833Z" fill="white"/>
<rect width="38.7125" height="92.8042" rx="19.3563" transform="matrix(-0.974853 -0.222847 -0.299646 0.95405 193.803 259.75)" fill="#F6D5A9"/>
<path d="M65.372 197.612C68.7372 177.664 86.0123 163.059 106.243 163.059V163.059C126.474 163.059 143.749 177.664 147.114 197.612L161.3 281.707C167.047 315.773 140.79 346.83 106.243 346.83V346.83C71.6958 346.83 45.4392 315.773 51.1859 281.707L65.372 197.612Z" fill="#F6D5A9"/>
<path d="M65.085 254.946C82.5811 250.105 99.7503 231.253 106.789 216.66L106.905 346.832C92.9838 320.249 66.0636 254.643 65.085 254.946Z" fill="white"/>
<path d="M147.399 253.032C130.87 248.127 113.439 231.445 106.789 216.66L106.905 346.832C120.056 319.899 146.475 252.724 147.399 253.032Z" fill="white"/>
<path d="M84.8867 327.684H64.966C59.4651 327.684 51.6855 336.254 51.6855 346.826H98.1672C98.1672 336.254 90.3877 327.684 84.8867 327.684Z" fill="white"/>
<path d="M63.3057 346.826C63.3057 341.083 63.3057 331.512 67.1791 329.598" stroke="black" stroke-width="1.91428"/>
<path d="M84.6094 346.826C84.6094 341.083 84.6094 331.512 80.7359 329.598" stroke="black" stroke-width="1.91428"/>
<path d="M148.058 327.684H128.137C122.636 327.684 114.856 336.254 114.856 346.826H161.338C161.338 336.254 153.559 327.684 148.058 327.684Z" fill="white"/>
<path d="M126.477 346.826C126.477 341.083 126.477 331.512 130.35 329.598" stroke="black" stroke-width="1.91428"/>
<path d="M147.78 346.826C147.78 341.083 147.78 331.512 143.907 329.598" stroke="black" stroke-width="1.91428"/>
<path d="M24.8887 149.601C31.8438 108.303 61.6847 104.246 74.7256 101.9C79.7491 100.996 83.4195 106.59 76.8991 115.977C71.6831 123.486 56.042 151.947 55.3175 170.719C45.1745 167.59 24.8887 158.987 24.8887 149.601Z" fill="#9D8E7E"/>
<path d="M189.518 149.601C182.274 108.303 151.583 104.246 138.002 101.9C132.77 100.996 128.947 106.59 135.738 115.977C141.17 123.486 157.073 151.947 157.828 170.719C168.391 167.59 189.518 158.987 189.518 149.601Z" fill="#9D8E7E"/>
<path d="M107.536 99.8906C64.7928 99.8906 38.2891 127.991 38.2891 162.656C44.7386 174.915 67.6173 199.433 107.536 199.433V99.8906Z" fill="#F6D5A9"/>
<path d="M107.536 99.8906C150.279 99.8906 176.783 127.991 176.783 162.656C170.334 174.915 147.455 199.433 107.536 199.433V99.8906Z" fill="#F6D5A9"/>
<path d="M68.917 164.594C79.2797 153.77 100.652 156.855 107.203 162.077V178.256C97.1974 179.395 86.1881 196.613 82.317 203.259C80.8877 202.69 78.7437 195.451 78.7437 193.077C76.2423 193.077 73.5325 198.299 72.4903 200.91C71.4183 192.365 74.1281 182.159 75.617 178.123C73.8303 176.984 71.597 180.497 70.7037 182.396C69.2743 178.978 72.1925 171.952 73.8303 168.866C72.7583 166.018 70.1081 164.831 68.917 164.594Z" fill="#9D8E7E"/>
<path d="M145.488 164.683C135.395 153.75 113.584 156.834 107.203 162.108V178.349C116.948 179.5 126.926 196.546 130.696 203.259C132.088 202.684 135.917 195.851 135.917 193.453C138.353 193.453 140.993 198.728 142.008 201.365C143.052 192.734 140.413 182.425 138.962 178.349C140.703 177.198 142.878 180.746 143.748 182.664C145.14 179.212 142.298 172.115 140.703 168.998C141.747 166.121 144.328 164.923 145.488 164.683Z" fill="#9D8E7E"/>
<path d="M107.203 178.379V184.122C106.565 186.674 102.991 191.779 93.8027 191.779" stroke="black" stroke-width="1.91428"/>
<path d="M107.203 178.379V184.122C107.841 186.674 111.414 191.779 120.603 191.779" stroke="black" stroke-width="1.91428"/>
<ellipse cx="107.203" cy="170.72" rx="11.4857" ry="7.65714" fill="black"/>
<circle cx="82.3181" cy="155.403" r="5.74286" fill="black"/>
<circle cx="132.089" cy="155.403" r="5.74286" fill="black"/>
<path d="M72.7456 135.307C84.997 133.775 91.8885 138.497 93.8027 141.05C100.694 149.473 96.6742 152.535 93.8027 149.664C91.5056 148.133 83.9123 152.854 80.4028 155.407V152.535C75.8085 152.535 69.5551 158.278 67.0028 161.15C67.0028 159.618 68.917 156.045 69.8742 154.45C67.577 152.918 56.7932 155.726 51.6885 157.321C52.4542 150.43 61.5789 147.431 66.0456 146.793L60.3028 142.964C64.1313 139.135 73.3837 140.093 77.5313 141.05L72.7456 135.307Z" fill="#9D8E7E"/>
<path d="M141.637 135.307C129.386 133.775 122.494 138.497 120.58 141.05C113.689 149.473 117.709 152.535 120.58 149.664C122.877 148.133 130.471 152.854 133.98 155.407V152.535C138.574 152.535 144.828 158.278 147.38 161.15C147.38 159.618 145.466 156.045 144.509 154.45C146.806 152.918 157.59 155.726 162.694 157.321C161.929 150.43 152.804 147.431 148.337 146.793L154.08 142.964C150.251 139.135 140.999 140.093 136.851 141.05L141.637 135.307Z" fill="#9D8E7E"/>
</svg>
