<svg width="137" height="230" viewBox="0 0 137 230" fill="none" xmlns="http://www.w3.org/2000/svg">
<path d="M32.1064 226.887C32.1064 223.53 34.828 220.809 38.1852 220.809H57.637V226.887H32.1064V226.887Z" fill="#482712"/>
<rect width="22.61" height="61.6927" rx="11.305" transform="matrix(0.966506 -0.256645 0.261009 0.965336 27.2432 169.469)" fill="#482712"/>
<path d="M103.835 226.887C103.835 223.53 101.113 220.809 97.7562 220.809H78.3044V226.887H103.835V226.887Z" fill="#482712"/>
<rect width="22.61" height="61.6927" rx="11.305" transform="matrix(-0.966506 -0.256645 -0.261009 0.965336 108.965 169.469)" fill="#482712"/>
<path d="M53.3571 122.53C54.5603 115.398 60.7368 110.176 67.9701 110.176V110.176C75.2034 110.176 81.3799 115.398 82.5831 122.53L94.8282 195.119C97.6316 211.737 84.823 226.887 67.9701 226.887V226.887C51.1172 226.887 38.3087 211.737 41.112 195.119L53.3571 122.53Z" fill="#482712"/>
<path d="M57.984 217.16H47.5633C44.6857 217.16 40.6162 221.515 40.6162 226.886H64.9311C64.9311 221.515 60.8616 217.16 57.984 217.16Z" fill="#E8904F"/>
<path d="M47.9111 226.885C47.9111 224.048 47.9111 219.321 50.3426 218.375" stroke="black" stroke-width="1.21574"/>
<path d="M58.8525 226.885C58.8525 224.048 58.8525 219.321 56.4211 218.375" stroke="black" stroke-width="1.21574"/>
<path d="M88.3775 217.16H77.9569C75.0793 217.16 71.0098 221.515 71.0098 226.886H95.3246C95.3246 221.515 91.2551 217.16 88.3775 217.16Z" fill="#E8904F"/>
<path d="M78.3047 226.885C78.3047 224.048 78.3047 219.321 79.5204 218.375" stroke="black" stroke-width="1.21574"/>
<path d="M88.0303 226.885C88.0303 224.048 88.0303 219.321 85.5988 218.375" stroke="black" stroke-width="1.21574"/>
<path d="M41.3795 93.7839C35.5796 75.4045 49.3028 56.6836 68.5756 56.6836V56.6836C87.8485 56.6836 101.572 75.4045 95.7718 93.7839L83.2516 133.459C81.2307 139.863 75.2909 144.217 68.5756 144.217V144.217C61.8604 144.217 55.9206 139.863 53.8997 133.459L41.3795 93.7839Z" fill="#482712"/>
<circle cx="52.7703" cy="96.7996" r="3.64723" fill="black"/>
<circle cx="84.3797" cy="96.7996" r="3.64723" fill="black"/>
<ellipse cx="68.808" cy="135.761" rx="9.72594" ry="4.86297" fill="black"/>
<ellipse cx="46.2647" cy="64.427" rx="9.16117" ry="8.96214" fill="#482712"/>
<ellipse cx="20.6137" cy="96.6915" rx="12.8256" ry="12.547" fill="#482712"/>
<path d="M11.4521 87.7296L38.9357 59.0508L55.2017 66.4076L40.229 131.45L11.4521 87.7296Z" fill="#482712"/>
<path d="M8.01218 127.195L7.78809 96.6914L31.7192 102.88L40.2294 126.587L8.01218 127.195Z" fill="#482712"/>
<ellipse cx="24.4252" cy="127.195" rx="16.4125" ry="15.8047" fill="#482712"/>
<ellipse cx="9.16117" cy="8.96214" rx="9.16117" ry="8.96214" transform="matrix(-1 0 0 1 100.271 55.4648)" fill="#482712"/>
<ellipse cx="12.8256" cy="12.547" rx="12.8256" ry="12.547" transform="matrix(-1 0 0 1 129.586 84.1445)" fill="#482712"/>
<path d="M125.922 87.7296L98.4384 59.0508L82.1723 66.4076L97.145 131.45L125.922 87.7296Z" fill="#482712"/>
<path d="M129.362 127.195L129.586 96.6914L105.655 102.88L97.1447 126.587L129.362 127.195Z" fill="#482712"/>
<ellipse cx="16.4125" cy="15.8047" rx="16.4125" ry="15.8047" transform="matrix(-1 0 0 1 129.362 111.391)" fill="#482712"/>
<path d="M61.0774 138.974C66.5992 140.147 68.398 137.019 68.6072 135.309V80.875H66.1757C66.1757 80.875 62.4482 94.2504 59.1165 102.095C56.1928 108.979 49.1553 118.452 49.1553 118.452L53.5476 133.11C53.7568 134.576 55.5556 137.801 61.0774 138.974Z" fill="#E8904F"/>
<path d="M75.6668 138.974C70.49 140.147 68.8037 137.019 68.6076 135.309V80.875H71.0391C71.0391 80.875 74.1987 94.2217 77.3531 102.095C80.0997 108.95 86.8438 118.452 86.8438 118.452L82.7259 133.11C82.5298 134.576 80.8435 137.801 75.6668 138.974Z" fill="#E8904F"/>
<path d="M68.6067 137.266C64.6912 141.009 56.4493 139.227 54.0178 134.29L49.7627 122.207" stroke="black" stroke-width="1.21574"/>
<path d="M67.3913 137.266C71.3068 141.009 79.5488 139.227 81.9803 134.29L86.2354 122.207" stroke="black" stroke-width="1.21574"/>
<path d="M58.8809 131.932C58.8809 129.918 60.5138 128.285 62.5281 128.285H74.6855C76.6998 128.285 78.3327 129.918 78.3327 131.932V133.148H58.8809V131.932Z" fill="black"/>
<ellipse cx="68.6068" cy="133.152" rx="9.72594" ry="4.86297" fill="black"/>
</svg>
