<svg width="244" height="322" viewBox="0 0 244 322" fill="none" xmlns="http://www.w3.org/2000/svg">
<path d="M32.8564 319.273C32.8564 313.274 37.7199 308.41 43.7192 308.41H80.6528V319.273H32.8564V319.273Z" fill="white"/>
<rect width="43.9356" height="105.325" rx="21.9678" transform="matrix(0.974853 -0.222847 0.299646 0.95405 22.0977 220.438)" fill="#B9A592"/>
<path d="M209.462 319.273C209.462 313.274 204.598 308.41 198.599 308.41H161.666V319.273H209.462V319.273Z" fill="white"/>
<rect width="43.9356" height="105.325" rx="21.9678" transform="matrix(-0.974853 -0.222847 -0.299646 0.95405 220.221 220.438)" fill="#B9A592"/>
<path d="M74.4616 149.927C78.2808 127.286 97.8866 110.711 120.847 110.711V110.711C143.807 110.711 163.413 127.286 167.232 149.927L183.332 245.368C189.854 284.03 160.055 319.277 120.847 319.277V319.277C81.6386 319.277 51.8394 284.03 58.3614 245.368L74.4616 149.927Z" fill="#B9A592"/>
<path d="M74.1367 214.998C93.9934 209.505 113.479 188.108 121.468 171.547L121.599 319.281C105.8 289.112 75.2474 214.654 74.1367 214.998Z" fill="white"/>
<path d="M167.557 212.826C148.797 207.26 129.014 188.326 121.467 171.547L121.599 319.281C136.525 288.715 166.507 212.477 167.557 212.826Z" fill="white"/>
<path d="M96.6094 297.551H74.001C67.7578 297.551 58.9287 307.278 58.9287 319.276H111.682C111.682 307.278 102.853 297.551 96.6094 297.551Z" fill="white"/>
<path d="M72.1172 319.276C72.1172 312.758 72.1172 301.895 76.5133 299.723" stroke="black" stroke-width="2.17256"/>
<path d="M96.2949 319.276C96.2949 312.758 96.2949 301.895 91.8988 299.723" stroke="black" stroke-width="2.17256"/>
<path d="M168.304 297.551H145.695C139.452 297.551 130.623 307.278 130.623 319.276H183.376C183.376 307.278 174.547 297.551 168.304 297.551Z" fill="white"/>
<path d="M143.812 319.276C143.812 312.758 143.812 301.895 148.208 299.723" stroke="black" stroke-width="2.17256"/>
<path d="M167.989 319.276C167.989 312.758 167.989 301.895 163.593 299.723" stroke="black" stroke-width="2.17256"/>
<path d="M169.669 140.836C175.694 170.961 152.653 199.066 121.932 199.066V199.066C91.2111 199.066 68.1699 170.961 74.1948 140.836L85.9275 82.1728C89.1771 65.9247 103.444 54.229 120.013 54.229H123.851C140.421 54.229 154.687 65.9247 157.937 82.1728L169.669 140.836Z" fill="#B9A592"/>
<path d="M71.2384 46.9766H98.723C108.986 46.9766 114.182 59.3336 107.004 66.6682L79.5192 94.7504C72.2566 102.171 59.6514 97.0288 59.6514 86.6457V58.5636C59.6514 52.1642 64.839 46.9766 71.2384 46.9766Z" fill="#9D8E7E"/>
<path d="M172.624 46.9766H145.139C134.876 46.9766 129.68 59.3336 136.858 66.6682L164.343 94.7504C171.606 102.171 184.211 97.0288 184.211 86.6457V58.5636C184.211 52.1642 179.023 46.9766 172.624 46.9766Z" fill="#9D8E7E"/>
<path d="M66.1709 147.956C80.8719 137.297 111.191 140.335 120.485 145.477V161.409C106.291 162.531 90.6726 179.487 85.1808 186.031C83.1531 185.47 80.1115 178.342 80.1115 176.004C76.563 176.004 72.7188 181.147 71.2402 183.718C69.7194 175.303 73.5636 165.252 75.6759 161.279C73.1412 160.157 69.9729 163.616 68.7056 165.486C66.6778 162.12 70.8178 155.202 73.1412 152.163C71.6204 149.358 67.8607 148.189 66.1709 147.956Z" fill="white"/>
<path d="M176.248 148.014C161.547 137.239 129.779 140.278 120.486 145.477V161.482C134.68 162.616 149.212 179.415 154.703 186.031C156.731 185.464 162.307 178.73 162.307 176.367C165.856 176.367 169.7 181.565 171.179 184.164C172.7 175.658 168.855 165.498 166.743 161.482C169.278 160.347 172.446 163.844 173.713 165.735C175.741 162.332 171.601 155.338 169.278 152.267C170.799 149.431 174.558 148.25 176.248 148.014Z" fill="white"/>
<path d="M121.209 164.305V168.65C120.726 170.581 115.126 177.34 108.174 177.34" stroke="black" stroke-width="1.44837"/>
<path d="M121.209 164.305V168.65C121.752 170.581 126.423 177.34 134.244 177.34" stroke="black" stroke-width="1.44837"/>
<ellipse cx="121.209" cy="155.616" rx="13.0354" ry="8.69025" fill="black"/>
<path d="M97.7136 88.7695C93.1358 95.7155 82.8852 108.899 83.2776 123.717C83.768 142.239 91.4041 140.814 93.8564 139.078C97.2367 136.684 101.69 127.19 98.2695 127.19C93.6165 127.19 96.2725 140.308 104.846 139.924C112.694 139.572 117.927 126.721 113.274 126.721C109.35 126.721 112.29 140.503 122.1 140.503C131.91 140.503 135.242 127.769 130.35 127.769C125.458 127.769 132.508 140.503 139.18 140.503C146.034 140.503 149.854 127.769 145.93 127.769C140.209 127.769 144.08 143.315 155.2 140.503C164.356 138.188 164.895 112.435 145.93 88.7695" stroke="#9D8E7E" stroke-width="1.76521"/>
</svg>
