<svg width="244" height="279" viewBox="0 0 244 279" fill="none" xmlns="http://www.w3.org/2000/svg">
<path d="M32.5869 275.91C32.5869 269.91 37.4504 265.047 43.4497 265.047H80.3833V275.91H32.5869V275.91Z" fill="white"/>
<rect width="43.9356" height="105.325" rx="21.9678" transform="matrix(0.974853 -0.222847 0.299646 0.95405 21.8281 177.074)" fill="#B9A592"/>
<path d="M209.191 275.91C209.191 269.91 204.328 265.047 198.329 265.047H161.395V275.91H209.191V275.91Z" fill="white"/>
<rect width="43.9356" height="105.325" rx="21.9678" transform="matrix(-0.974853 -0.222847 -0.299646 0.95405 219.951 177.074)" fill="#B9A592"/>
<path d="M74.192 106.564C78.0113 83.9231 97.6171 67.3477 120.577 67.3477V67.3477C143.538 67.3477 163.143 83.9231 166.963 106.564L183.063 202.004C189.585 240.667 159.786 275.914 120.577 275.914V275.914C81.369 275.914 51.5699 240.667 58.0919 202.004L74.192 106.564Z" fill="#B9A592"/>
<path d="M73.8672 171.635C93.7239 166.141 113.21 144.745 121.198 128.184L121.329 275.918C105.53 245.749 74.9779 171.291 73.8672 171.635Z" fill="white"/>
<path d="M167.287 169.462C148.528 163.896 128.745 144.963 121.198 128.184L121.329 275.918C136.255 245.352 166.238 169.114 167.287 169.462Z" fill="white"/>
<path d="M96.3399 254.188H73.7315C67.4883 254.188 58.6592 263.914 58.6592 275.913H111.412C111.412 263.914 102.583 254.188 96.3399 254.188Z" fill="white"/>
<path d="M71.8477 275.912C71.8477 269.395 71.8477 258.532 76.2437 256.359" stroke="black" stroke-width="2.17256"/>
<path d="M96.0254 275.912C96.0254 269.395 96.0254 258.532 91.6293 256.359" stroke="black" stroke-width="2.17256"/>
<path d="M168.034 254.188H145.426C139.183 254.188 130.354 263.914 130.354 275.913H183.106C183.106 263.914 174.277 254.188 168.034 254.188Z" fill="white"/>
<path d="M143.542 275.912C143.542 269.395 143.542 258.532 147.938 256.359" stroke="black" stroke-width="2.17256"/>
<path d="M167.72 275.912C167.72 269.395 167.72 258.532 163.324 256.359" stroke="black" stroke-width="2.17256"/>
<path d="M170.121 102.606C176.145 132.73 153.104 160.836 122.383 160.836V160.836C91.6622 160.836 68.621 132.73 74.6459 102.606L86.3786 43.9423C89.6283 27.6942 103.895 15.9985 120.465 15.9985H124.302C140.872 15.9985 155.138 27.6942 158.388 43.9423L170.121 102.606Z" fill="#B9A592"/>
<path d="M71.587 7H99.0717C109.335 7 114.531 19.3571 107.353 26.6917L79.8679 54.7738C72.6053 62.1943 60 57.0522 60 46.6691V18.587C60 12.1877 65.1877 7 71.587 7Z" fill="#9D8E7E"/>
<path d="M172.972 7H145.487C135.224 7 130.028 19.3571 137.206 26.6917L164.691 54.7738C171.953 62.1943 184.559 57.0522 184.559 46.6691V18.587C184.559 12.1877 179.371 7 172.972 7Z" fill="#9D8E7E"/>
<path d="M67.3428 108.374C82.0438 97.715 112.363 100.753 121.657 105.895V121.827C107.463 122.949 91.8444 139.905 86.3527 146.449C84.325 145.888 81.2834 138.76 81.2834 136.422C77.7349 136.422 73.8906 141.565 72.4121 144.136C70.8913 135.721 74.7355 125.67 76.8477 121.697C74.3131 120.575 71.1448 124.034 69.8774 125.904C67.8497 122.538 71.9896 115.62 74.3131 112.581C72.7923 109.776 69.0325 108.607 67.3428 108.374Z" fill="white"/>
<path d="M177.419 108.432C162.718 97.6572 130.95 100.696 121.657 105.894V121.899C135.851 123.034 150.383 139.833 155.874 146.449C157.902 145.882 163.478 139.148 163.478 136.785C167.027 136.785 170.871 141.983 172.35 144.582C173.87 136.076 170.026 125.916 167.914 121.899C170.449 120.765 173.617 124.262 174.884 126.152C176.912 122.75 172.772 115.756 170.449 112.685C171.969 109.849 175.729 108.668 177.419 108.432Z" fill="white"/>
<path d="M122.381 124.727V129.072C121.898 131.003 116.298 137.762 109.346 137.762" stroke="black" stroke-width="1.44837"/>
<path d="M122.381 124.727V129.072C122.924 131.003 127.595 137.762 135.416 137.762" stroke="black" stroke-width="1.44837"/>
<ellipse cx="122.38" cy="116.034" rx="13.0354" ry="8.69025" fill="black"/>
<path d="M98.8562 43.6992C94.2784 50.6452 84.0278 63.8285 84.4201 78.6465C84.9106 97.1691 92.5466 95.7441 94.999 94.0076C98.3793 91.6141 102.833 82.1195 99.412 82.1195C94.7591 82.1195 97.4151 95.2381 105.989 94.8537C113.836 94.5019 119.069 81.6511 114.416 81.6511C110.492 81.6511 113.432 95.4326 123.242 95.4326C133.052 95.4326 136.385 82.6983 131.493 82.6983C126.6 82.6983 133.651 95.4326 140.322 95.4326C147.176 95.4326 150.996 82.6983 147.073 82.6983C141.352 82.6983 145.222 98.2449 156.343 95.4326C165.498 93.1173 166.037 67.3648 147.073 43.6992" stroke="#9D8E7E" stroke-width="1.76521"/>
</svg>
