<svg width="215" height="252" viewBox="0 0 215 252" fill="none" xmlns="http://www.w3.org/2000/svg">
<path d="M20 53.7961C26.9552 12.4983 56.796 8.44095 69.8369 6.09518C74.8604 5.19155 78.5308 10.7857 72.0104 20.1727C66.7944 27.6818 51.1533 56.1425 50.4288 74.9143C40.2859 71.7856 20 63.1819 20 53.7961Z" fill="#9D8E7E"/>
<path d="M194.429 53.7961C187.185 12.4983 156.494 8.44095 142.913 6.09518C137.681 5.19155 133.859 10.7857 140.649 20.1727C146.081 27.6818 161.984 56.1425 162.739 74.9143C173.302 71.7856 194.429 63.1819 194.429 53.7961Z" fill="#9D8E7E"/>
<path d="M107.247 0.542969C64.5037 0.542969 38 28.6438 38 63.3079C44.4495 75.5672 67.3282 100.086 107.247 100.086V0.542969Z" fill="#F6D5A9"/>
<path d="M107.247 0.542969C149.99 0.542969 176.494 28.6438 176.494 63.3079C170.045 75.5672 147.166 100.086 107.247 100.086V0.542969Z" fill="#F6D5A9"/>
<path d="M28.7119 249.118C28.7119 243.832 32.9972 239.547 38.2833 239.547H70.8262V249.118H28.7119V249.118Z" fill="white"/>
<rect width="38.7125" height="92.8042" rx="19.3563" transform="matrix(0.974853 -0.222847 0.299646 0.95405 19.2324 162.035)" fill="#F6D5A9"/>
<path d="M184.323 249.118C184.323 243.832 180.038 239.547 174.752 239.547H142.209V249.118H184.323V249.118Z" fill="white"/>
<rect width="38.7125" height="92.8042" rx="19.3563" transform="matrix(-0.974853 -0.222847 -0.299646 0.95405 193.803 162.035)" fill="#F6D5A9"/>
<path d="M65.372 99.8976C68.7372 79.9487 86.0123 65.3438 106.243 65.3438V65.3438C126.474 65.3438 143.749 79.9487 147.114 99.8976L161.3 183.992C167.047 218.058 140.79 249.115 106.243 249.115V249.115C71.6958 249.115 45.4392 218.058 51.1859 183.992L65.372 99.8976Z" fill="#F6D5A9"/>
<path d="M65.085 157.231C82.5811 152.391 99.7503 133.538 106.789 118.945L106.905 249.117C92.9838 222.534 66.0636 156.928 65.085 157.231Z" fill="white"/>
<path d="M147.399 155.317C130.87 150.413 113.439 133.73 106.789 118.945L106.905 249.117C120.056 222.184 146.475 155.009 147.399 155.317Z" fill="white"/>
<path d="M84.8867 229.969H64.966C59.4651 229.969 51.6855 238.539 51.6855 249.112H98.1672C98.1672 238.539 90.3877 229.969 84.8867 229.969Z" fill="white"/>
<path d="M63.3057 249.111C63.3057 243.369 63.3057 233.797 67.1791 231.883" stroke="black" stroke-width="1.91428"/>
<path d="M84.6094 249.111C84.6094 243.369 84.6094 233.797 80.7359 231.883" stroke="black" stroke-width="1.91428"/>
<path d="M148.058 229.969H128.137C122.636 229.969 114.856 238.539 114.856 249.112H161.338C161.338 238.539 153.559 229.969 148.058 229.969Z" fill="white"/>
<path d="M126.477 249.111C126.477 243.369 126.477 233.797 130.35 231.883" stroke="black" stroke-width="1.91428"/>
<path d="M147.78 249.111C147.78 243.369 147.78 233.797 143.907 231.883" stroke="black" stroke-width="1.91428"/>
<path d="M68.6855 62.3634C79.0482 51.5399 100.42 54.6244 106.971 59.8463V76.0251C96.9659 77.1644 85.9567 94.3827 82.0855 101.029C80.6562 100.459 78.5122 93.2202 78.5122 90.8466C76.0109 90.8466 73.3011 96.0685 72.2589 98.6794C71.1869 90.1345 73.8967 79.928 75.3855 75.8929C73.5989 74.7536 71.3655 78.2665 70.4722 80.1654C69.0429 76.7474 71.9611 69.7216 73.5989 66.6359C72.5269 63.7876 69.8767 62.6008 68.6855 62.3634Z" fill="#9D8E7E"/>
<path d="M145.257 62.4524C135.163 51.5196 113.352 54.6034 106.971 59.878V76.1183C116.717 77.2691 126.694 94.3157 130.465 101.029C131.857 100.453 135.685 93.6203 135.685 91.2228C138.122 91.2228 140.761 96.4973 141.776 99.1346C142.82 90.5035 140.181 80.1941 138.731 76.1183C140.471 74.9675 142.646 78.5158 143.517 80.4339C144.909 76.9814 142.066 69.8847 140.471 66.7679C141.515 63.8909 144.097 62.6921 145.257 62.4524Z" fill="#9D8E7E"/>
<path d="M106.971 76.1406V81.8835C106.333 84.4359 102.76 89.5406 93.5713 89.5406" stroke="black" stroke-width="1.91428"/>
<path d="M106.971 76.1406V81.8835C107.609 84.4359 111.183 89.5406 120.371 89.5406" stroke="black" stroke-width="1.91428"/>
<ellipse cx="106.971" cy="68.4853" rx="11.4857" ry="7.65714" fill="black"/>
<circle cx="81.7429" cy="53.1413" r="5.74286" fill="black"/>
<circle cx="131.514" cy="53.1413" r="5.74286" fill="black"/>
<path d="M72.1714 33.0451C84.4228 31.5137 91.3142 36.2356 93.2285 38.788C100.12 47.2109 96.1 50.2737 93.2285 47.4023C90.9314 45.8709 83.3381 50.5928 79.8285 53.1451V50.2737C75.2342 50.2737 68.9809 56.0166 66.4285 58.888C66.4285 57.3566 68.3428 53.7832 69.3 52.188C67.0028 50.6566 56.219 53.4642 51.1143 55.0594C51.88 48.168 61.0047 45.1689 65.4714 44.5309L59.7285 40.7023C63.5571 36.8737 72.8095 37.8309 76.9571 38.788L72.1714 33.0451Z" fill="#9D8E7E"/>
<path d="M141.063 33.0451C128.812 31.5137 121.92 36.2356 120.006 38.788C113.114 47.2109 117.134 50.2737 120.006 47.4023C122.303 45.8709 129.896 50.5928 133.406 53.1451V50.2737C138 50.2737 144.253 56.0166 146.806 58.888C146.806 57.3566 144.892 53.7832 143.934 52.188C146.232 50.6566 157.015 53.4642 162.12 55.0594C161.354 48.168 152.23 45.1689 147.763 44.5309L153.506 40.7023C149.677 36.8737 140.425 37.8309 136.277 38.788L141.063 33.0451Z" fill="#9D8E7E"/>
</svg>
