<svg width="33" height="35" viewBox="0 0 33 35" fill="none" xmlns="http://www.w3.org/2000/svg">
<path d="M10.288 14.824C10.3093 14.8773 10.3147 14.92 10.304 14.952C10.2933 14.984 10.2613 15 10.208 15H9.184C9.06667 15 8.98667 14.9627 8.944 14.888L5.168 8.744C5.104 8.65867 5.02933 8.664 4.944 8.76L2.992 10.952C2.90667 11.0373 2.864 11.1333 2.864 11.24V14.808C2.864 14.936 2.79467 15 2.656 15H1.872C1.79733 15 1.744 14.9893 1.712 14.968C1.68 14.936 1.664 14.8827 1.664 14.808V3.288C1.664 3.18133 1.71733 3.128 1.824 3.128H2.72C2.816 3.128 2.864 3.18133 2.864 3.288V9.448C2.864 9.512 2.87467 9.54933 2.896 9.56C2.91733 9.56 2.95467 9.53333 3.008 9.48L8.608 3.24C8.64 3.19733 8.672 3.17067 8.704 3.16C8.74667 3.13867 8.80533 3.128 8.88 3.128H9.776C9.85067 3.128 9.89333 3.14933 9.904 3.192C9.92533 3.224 9.91467 3.26133 9.872 3.304L5.968 7.624C5.936 7.66667 5.936 7.72 5.968 7.784L10.288 14.824Z" fill="black"/>
<path d="M22.872 19.128C22.9253 19.128 23.0533 19.128 23.256 19.128C23.4693 19.128 23.704 19.1333 23.96 19.144C24.216 19.144 24.4507 19.144 24.664 19.144C24.8773 19.144 25.0213 19.144 25.096 19.144C26.5787 19.1547 27.7733 19.384 28.68 19.832C29.5973 20.2693 30.264 20.9147 30.68 21.768C31.1067 22.6213 31.32 23.6827 31.32 24.952C31.32 26.3173 31.0853 27.448 30.616 28.344C30.1573 29.24 29.4533 29.9067 28.504 30.344C27.5653 30.7813 26.3653 31 24.904 31H22.856C22.728 31 22.664 30.9307 22.664 30.792V19.32C22.664 19.256 22.68 19.208 22.712 19.176C22.744 19.144 22.7973 19.128 22.872 19.128ZM24.024 20.088C23.9173 20.088 23.864 20.1627 23.864 20.312V29.896C23.864 30.0027 23.928 30.056 24.056 30.056H24.744C26.0027 30.056 27.0213 29.896 27.8 29.576C28.5787 29.2453 29.1493 28.712 29.512 27.976C29.8747 27.24 30.056 26.2693 30.056 25.064C30.056 23.7627 29.864 22.7547 29.48 22.04C29.1067 21.3253 28.5307 20.824 27.752 20.536C26.984 20.2373 26.0027 20.088 24.808 20.088H24.024Z" fill="black"/>
<path d="M23.625 10.87C23.695 10.87 23.74 10.89 23.76 10.93C23.79 10.97 23.8 11.02 23.79 11.08L20.685 21.805C20.645 21.935 20.55 22 20.4 22H19.665C19.495 22 19.39 21.94 19.35 21.82L16.815 12.82C16.805 12.77 16.79 12.745 16.77 12.745C16.76 12.745 16.745 12.77 16.725 12.82L14.16 21.805C14.12 21.935 14.025 22 13.875 22H13.125C12.955 22 12.85 21.94 12.81 21.82L9.765 11.095C9.755 11.025 9.765 10.97 9.795 10.93C9.825 10.89 9.875 10.87 9.945 10.87H10.665C10.735 10.87 10.785 10.88 10.815 10.9C10.855 10.92 10.88 10.96 10.89 11.02L13.47 20.26C13.5 20.36 13.53 20.41 13.56 20.41C13.59 20.4 13.62 20.345 13.65 20.245L16.275 11.005C16.295 10.975 16.32 10.945 16.35 10.915C16.38 10.885 16.435 10.87 16.515 10.87H17.175C17.255 10.87 17.31 10.88 17.34 10.9C17.37 10.92 17.39 10.96 17.4 11.02L19.995 20.275C20.025 20.365 20.055 20.41 20.085 20.41C20.115 20.41 20.145 20.365 20.175 20.275L22.8 11.005C22.81 10.955 22.835 10.92 22.875 10.9C22.915 10.88 22.965 10.87 23.025 10.87H23.625Z" fill="black"/>
</svg>
